<svg width="32" height="32" viewBox="0 0 32 32" fill="none" xmlns="http://www.w3.org/2000/svg">
<g clip-path="url(#clip0_159_65)">
<rect width="32" height="32" fill="white" style="fill:white;fill-opacity:1;"/>
<g filter="url(#filter0_f_159_65)">
<path d="M26 16C26 21.5228 21.5228 26 16 26C10.4772 26 6 21.5228 6 16C6 10.4772 10.4772 6 16 6C21.5228 6 26 10.4772 26 16Z" fill="#2E48F5" style="fill:#2E48F5;fill:color(display-p3 0.1804 0.2824 0.9608);fill-opacity:1;"/>
</g>
<g filter="url(#filter1_f_159_65)">
<path d="M24 16C24 20.4183 20.4183 24 16 24C11.5817 24 8 20.4183 8 16C8 11.5817 11.5817 8 16 8C20.4183 8 24 11.5817 24 16Z" fill="white" fill-opacity="0.82" style="fill:white;fill-opacity:0.82;"/>
</g>
</g>
<defs>
<filter id="filter0_f_159_65" x="4.5" y="4.5" width="23" height="23" filterUnits="userSpaceOnUse" color-interpolation-filters="sRGB">
<feFlood flood-opacity="0" result="BackgroundImageFix"/>
<feBlend mode="normal" in="SourceGraphic" in2="BackgroundImageFix" result="shape"/>
<feGaussianBlur stdDeviation="0.75" result="effect1_foregroundBlur_159_65"/>
</filter>
<filter id="filter1_f_159_65" x="0.3" y="0.3" width="31.4" height="31.4" filterUnits="userSpaceOnUse" color-interpolation-filters="sRGB">
<feFlood flood-opacity="0" result="BackgroundImageFix"/>
<feBlend mode="normal" in="SourceGraphic" in2="BackgroundImageFix" result="shape"/>
<feGaussianBlur stdDeviation="3.85" result="effect1_foregroundBlur_159_65"/>
</filter>
<clipPath id="clip0_159_65">
<rect width="32" height="32" fill="white" style="fill:white;fill-opacity:1;"/>
</clipPath>
</defs>
</svg>
